<?xml version="1.0" encoding="UTF-8"?>
<svg width="167px" height="97px" viewBox="0 0 167 97" version="1.1" xmlns="http://www.w3.org/2000/svg" xmlns:xlink="http://www.w3.org/1999/xlink">
    <!-- Generator: Sketch 54.1 (76490) - https://sketchapp.com -->
    <title>Artboard</title>
    <desc>Created with Sketch.</desc>
    <g id="Artboard" stroke="none" stroke-width="1" fill="none" fill-rule="evenodd">
        <path d="M23.6405,57.4 L23.6405,60.3645 C23.6405,65.386 19.5265,69.5 14.505,69.5 L9.3625,69.5 C4.341,69.5 0.227,65.386 0.227,60.3645 L0.227,57.763 L3.0705,57.763 L3.0705,60.3645 C3.0705,63.813 5.914,66.6565 9.3625,66.6565 L14.505,66.6565 C17.9535,66.6565 20.797,63.813 20.797,60.3645 L20.797,57.4 C20.797,55.343 19.1635,52.7415 17.3485,51.7735 L5.309,45.784 C2.4655,44.332 0.227,40.7625 0.227,37.6165 L0.227,34.652 C0.227,29.6305 4.341,25.5165 9.3625,25.5165 L12.206,25.5165 C17.288,25.5165 21.3415,29.6305 21.3415,34.652 L21.3415,37.193 L18.498,37.193 L18.498,34.652 C18.498,31.2035 15.715,28.36 12.206,28.36 L9.3625,28.36 C5.914,28.36 3.0705,31.2035 3.0705,34.652 L3.0705,37.6165 C3.0705,39.6735 4.704,42.275 6.5795,43.1825 L18.619,49.2325 C21.4625,50.624 23.6405,54.254 23.6405,57.4 Z M31.1425,25.5165 L51.7125,25.5165 L51.7125,28.36 L32.534,28.36 L32.534,46.0865 L46.57,46.0865 L46.57,48.93 L32.534,48.93 L32.534,66.6565 L51.7125,66.6565 L51.7125,69.5 L31.1425,69.5 L29.6905,68.048 L29.6905,26.908 L31.1425,25.5165 Z M78.3325,25.5165 L81.176,25.5165 L81.176,69.5 L79.482,69.5 L60.606,31.5665 L60.606,69.5 L57.7625,69.5 L57.7625,25.5165 L60.485,24.851 L78.3325,60.6065 L78.3325,25.5165 Z M87.226,25.5165 L107.796,25.5165 L107.796,28.36 L98.963,28.36 L98.963,69.5 L96.059,69.5 L96.059,28.36 L87.226,28.36 L87.226,25.5165 Z M128.1845,48.567 L136.957,59.457 L137.2595,60.3645 L137.2595,69.5 L134.416,69.5 L134.416,60.8485 L124.857,48.93 L116.6895,48.93 L116.6895,69.5 L113.846,69.5 L113.846,26.9685 L115.2375,25.5165 L125.5225,25.5165 C130.6045,25.5165 134.658,29.6305 134.658,34.652 L134.658,39.7945 C134.658,43.9085 131.9355,47.4175 128.1845,48.567 Z M116.6895,46.0865 L125.5225,46.0865 C129.0315,46.0865 131.8145,43.243 131.8145,39.7945 L131.8145,34.652 C131.8145,31.2035 129.0315,28.36 125.5225,28.36 L116.6895,28.36 L116.6895,46.0865 Z M163.8795,25.5165 L166.723,25.5165 L166.723,34.652 L166.4205,35.499 L156.438,48.0225 L156.438,69.5 L153.5945,69.5 L153.5945,48.0225 L143.612,35.499 L143.3095,34.652 L143.3095,25.5165 L146.153,25.5165 L146.153,34.1075 L154.8045,44.937 L155.228,44.937 L163.8795,34.1075 L163.8795,25.5165 Z" id="sentry" fill="#000000" fill-rule="nonzero"></path>
    </g>
</svg>